# xmcd
#
# Track frame offsets: 
#        150
#        19152
#        38152
#        55658
#        69018
#        83558
#        101799
#        118609
#        141457
#        159631
#        175225
#        193613
#        210992
#        230811
#        251260
#        266074
#
# Disc length: 3819 seconds
#
# Revision: 0
# Processed by: cddbd v1.5.2PL0 Copyright (c) Steve Scherf et al.
# Submitted via: ExactAudioCopyFreeDBPlugin 1.0
#
DISCID=d80ee910
DTITLE=前川清 - 前川清大全集
DYEAR=2008
DGENRE=JPop
TTITLE0=長崎は今日も雨だった
TTITLE1=愛の旅路を
TTITLE2=噂の女
TTITLE3=そして神戸
TTITLE4=中の島ブルース
TTITLE5=東京砂漠
TTITLE6=この愛に生きて
TTITLE7=花の時・愛の時
TTITLE8=男と女の破片
TTITLE9=恋さぐり夢さぐり
TTITLE10=雪列車
TTITLE11=逢わずに愛して
TTITLE12=恋するお店
TTITLE13=スロー・グッドナイト
TTITLE14=朝まで踊ろう
TTITLE15=言えないグッバイ
EXTD=
EXTT0=
EXTT1=
EXTT2=
EXTT3=
EXTT4=
EXTT5=
EXTT6=
EXTT7=
EXTT8=
EXTT9=
EXTT10=
EXTT11=
EXTT12=
EXTT13=
EXTT14=
EXTT15=
PLAYORDER=
